<svg width="87" height="30" viewBox="0 0 87 30" fill="none" xmlns="http://www.w3.org/2000/svg">
<g clip-path="url(#clip0_2414_33)">
<path fill-rule="evenodd" clip-rule="evenodd" d="M27.2603 14H1.67289C1.19144 14 0.799805 14.3496 0.799805 14.7797V15.8868C0.799805 16.3169 1.19144 16.6667 1.67289 16.6667H27.2603C27.7417 16.6667 28.1334 16.3169 28.1334 15.8868V14.7797C28.1334 14.3496 27.7417 14 27.2603 14Z" fill="#fff"/>
<path fill-rule="evenodd" clip-rule="evenodd" d="M15.8912 18.9592C15.7259 18.7731 15.4859 18.6665 15.2324 18.6665H13.0307C12.7772 18.6665 12.537 18.7731 12.3719 18.9592L5.677 26.4712C5.52586 26.6415 5.4523 26.8583 5.46983 27.0821C5.48735 27.3058 5.59396 27.5096 5.76993 27.6559L6.70528 28.4332C6.86272 28.564 7.06353 28.6359 7.27065 28.6359C7.5245 28.6359 7.76475 28.5293 7.93002 28.3432L13.6213 21.9615C13.7491 21.8174 13.9352 21.7348 14.1315 21.7348C14.3279 21.7348 14.5138 21.8174 14.6418 21.9615L20.3381 28.3739C20.5032 28.5598 20.7436 28.6665 20.9973 28.6665C21.2047 28.6665 21.4052 28.5945 21.5628 28.4637L22.4981 27.6864C22.6741 27.5403 22.7807 27.3364 22.7981 27.1128C22.8158 26.889 22.7423 26.672 22.591 26.5018L15.8912 18.9592Z" fill="#fff"/>
<path fill-rule="evenodd" clip-rule="evenodd" d="M14.8797 25.333H14.0519C13.7282 25.333 13.4658 25.6047 13.4658 25.9401V29.3926C13.4658 29.7278 13.7282 29.9997 14.0519 29.9997H14.8797C15.2034 29.9997 15.4658 29.7278 15.4658 29.3926V25.9401C15.4658 25.6047 15.2034 25.333 14.8797 25.333Z" fill="#fff"/>
<path fill-rule="evenodd" clip-rule="evenodd" d="M14.0497 3.33335H14.8839C15.2058 3.33335 15.4668 3.0461 15.4668 2.69171V0.641638C15.4668 0.287264 15.2058 0 14.8839 0H14.0497C13.7278 0 13.4668 0.287264 13.4668 0.641638V2.69171C13.4668 3.0461 13.7278 3.33335 14.0497 3.33335Z" fill="#FF316D"/>
<path fill-rule="evenodd" clip-rule="evenodd" d="M8.68823 19.6812L8.17265 18.9457C7.97025 18.6569 7.56173 18.5796 7.25982 18.773L3.09183 21.4447C2.7895 21.6385 2.70878 22.0302 2.91171 22.3193L3.42789 23.0546C3.63039 23.343 4.03873 23.4199 4.34046 23.2267L8.50786 20.5554C8.81001 20.3618 8.89081 19.9703 8.68823 19.6812Z" fill="#00B4DF"/>
<path fill-rule="evenodd" clip-rule="evenodd" d="M25.8414 21.4447L21.6733 18.773C21.3715 18.5796 20.9628 18.6569 20.7605 18.9457L20.2449 19.6812C20.0424 19.9701 20.1231 20.3618 20.4253 20.5554L24.5928 23.2267C24.8944 23.4199 25.3029 23.343 25.5052 23.0546L26.0214 22.3193C26.2243 22.0304 26.1436 21.6385 25.8414 21.4447Z" fill="#FFDC18"/>
<path fill-rule="evenodd" clip-rule="evenodd" d="M20.7608 11.7214C20.9633 12.01 21.3718 12.0871 21.6734 11.8936L25.8409 9.22234C26.1432 9.02864 26.2238 8.63719 26.0213 8.34818L25.5056 7.61254C25.3034 7.32379 24.8947 7.24663 24.5929 7.44009L20.4248 10.1116C20.1224 10.3055 20.0419 10.6973 20.2447 10.9863L20.7608 11.7214Z" fill="#fff"/>
<path fill-rule="evenodd" clip-rule="evenodd" d="M3.09175 9.22242L7.25924 11.8936C7.56096 12.0871 7.9693 12.01 8.17179 11.7216L8.68797 10.9863C8.89083 10.6973 8.81018 10.3055 8.50795 10.1116L4.33987 7.44015C4.03797 7.24659 3.62945 7.32377 3.42704 7.6126L2.91145 8.34816C2.70888 8.63725 2.7896 9.02871 3.09175 9.22242Z" fill="#fff"/>
<path fill-rule="evenodd" clip-rule="evenodd" d="M14.1336 7.02118C15.0429 7.02118 15.78 7.75826 15.78 8.66753C15.78 9.57677 15.0429 10.314 14.1336 10.314C13.2242 10.314 12.4873 9.57677 12.4873 8.66753C12.4873 7.75826 13.2242 7.02118 14.1336 7.02118ZM14.1334 12.6671C16.3424 12.6671 18.1333 10.8763 18.1333 8.66703C18.1333 6.45785 16.3424 4.66699 14.1334 4.66699C11.9243 4.66699 10.1333 6.45785 10.1333 8.66703C10.1333 10.8763 11.9243 12.6671 14.1334 12.6671Z" fill="#fff"/>
<path fill-rule="evenodd" clip-rule="evenodd" d="M70.8653 10.0578C70.808 7.81105 71.8087 6.43133 74.8782 6.72339C75.2456 6.75825 75.3184 6.94733 75.3184 7.14644L75.293 8.26719C75.2954 8.495 75.1428 8.61366 74.9367 8.61366C74.8691 8.61366 74.8041 8.60789 74.7363 8.60191C74.698 8.59852 74.6592 8.59507 74.6184 8.59253C73.1438 8.50039 73.1594 9.4177 73.1656 9.78565C73.166 9.80705 73.1664 9.82687 73.1664 9.84432V10.7481H74.8524C75.0601 10.7481 75.2341 10.8184 75.2341 11.0743V12.234C75.2341 12.5045 75.1006 12.5911 74.9006 12.5911H73.1664V20.2418C73.1664 20.4848 73.1103 20.7143 72.7422 20.7143C72.5942 20.7143 72.3112 20.7141 72.0264 20.7139H72.0129H72.0113H72.0093H72.0057H71.9988C71.7142 20.7137 71.432 20.7135 71.2843 20.7135C71.076 20.7135 70.8673 20.6741 70.8673 20.3098C70.8673 20.219 70.8671 19.8813 70.8669 19.4168C70.8663 18.3923 70.8653 16.7512 70.8653 15.7791C70.8651 15.1153 70.8651 14.3875 70.8653 13.6631V12.5911C70.8653 12.5911 69.6656 12.5935 69.5414 12.5935C69.3077 12.5935 69.1771 12.5146 69.1771 12.2647V11.1052C69.1771 10.8916 69.2972 10.7477 69.6169 10.7477L70.8653 10.7481V10.0578ZM41.884 17.5262C41.6569 17.3569 41.4593 17.4255 41.3203 17.5838L41.317 17.5876C41.2361 17.6818 40.0307 19.0824 38.1054 18.8029C36.4673 18.5651 35.536 17.3175 35.5045 15.7579C35.4764 14.3608 36.2731 13.264 37.4284 12.8323C38.1453 12.5641 39.4191 12.4956 40.3946 13.1092C40.5397 13.2008 40.8851 13.4527 41.0236 13.5696C41.1719 13.6947 41.332 13.8231 41.5905 13.6503C41.7405 13.5496 42.2241 13.1627 42.5264 12.9054C42.8679 12.6153 42.6786 12.4127 42.4158 12.1311C42.4017 12.1162 42.387 12.1002 42.3728 12.0849C41.2195 10.8309 39.4377 10.4316 37.884 10.6086C35.4125 10.8906 33.6165 12.6089 33.358 15.0656C33.1214 17.3145 34.1645 19.5448 36.4513 20.4539C37.249 20.771 37.9469 20.8455 38.6132 20.8527C40.6713 20.8751 42.0749 19.6811 42.7031 18.9272C42.8962 18.6957 42.9602 18.5185 42.7775 18.3293C42.6092 18.1681 41.9318 17.5614 41.884 17.5262ZM52.8946 10.7481L51.3869 10.7485C50.9804 10.7481 51.0258 11.128 51.0258 11.128C51.0256 11.4628 51.0024 15.0713 50.9857 16.424C50.953 17.4247 50.4371 18.2706 49.55 18.6585C48.4334 19.1464 46.6865 18.9591 46.5838 17.2651C46.567 17.0033 46.5305 11.2234 46.5305 11.1451C46.5305 10.9439 46.4558 10.7487 46.1248 10.7487H45.3001L44.6893 10.7485C44.2996 10.7485 44.2592 10.9907 44.2592 11.2178C44.2592 11.6745 44.2582 12.1511 44.2574 12.6365C44.2552 13.874 44.2528 15.169 44.2643 16.3336C44.2649 16.3986 44.2655 16.4636 44.2659 16.529C44.2695 17.0152 44.2731 17.5115 44.3464 17.9893C44.584 19.5386 45.5455 20.4367 47.0575 20.792C48.6779 21.173 50.5525 20.5948 51.4729 19.5369C51.4983 19.5989 51.8235 20.3835 51.8612 20.4616C51.9503 20.6468 52.0251 20.7141 52.212 20.7141H53.0103C53.2709 20.7141 53.2743 20.5318 53.2769 20.3964L53.2773 20.3794C53.3028 17.4637 53.3032 14.0199 53.3032 11.1038C53.3032 10.8872 53.1881 10.7481 52.8946 10.7481ZM81.3524 7.18947C81.3524 6.82505 81.6081 6.72311 81.8693 6.72381C82.0614 6.72426 82.4445 6.72385 82.7743 6.72349C82.9596 6.72329 83.1279 6.72312 83.2361 6.72312C83.6517 6.72312 83.7078 7.04318 83.7078 7.21975V10.7481H85.8055C86.0602 10.7475 86.1743 10.9037 86.1743 11.105V12.2381C86.1743 12.4942 85.9964 12.5909 85.7472 12.5909H83.7078V17.2194C83.7078 17.6457 83.7106 18.7025 84.8773 18.7145C84.9903 18.7155 85.3205 18.7197 85.4682 18.7223C85.7654 18.7268 85.8867 18.9768 85.9276 19.1282L86.2197 20.397C86.2506 20.6061 86.0828 20.7032 85.906 20.7139C85.9054 20.7141 85.904 20.7141 85.9028 20.7141C85.1514 20.7433 84.541 20.7355 84.0344 20.6608C82.2792 20.4014 81.3635 19.4116 81.3635 17.5129C81.3635 17.5129 81.3524 7.48048 81.3524 7.18947ZM60.6034 6.72381C60.3421 6.72311 60.0865 6.82505 60.0865 7.18947C60.0865 7.48048 60.0976 17.5129 60.0976 17.5129C60.0976 19.4116 61.0132 20.4014 62.7685 20.6608C63.2752 20.7355 63.8857 20.7433 64.6368 20.7141C64.6376 20.7141 64.6384 20.7141 64.639 20.7141C64.6394 20.7141 64.64 20.7139 64.64 20.7139C64.8168 20.7032 64.9847 20.6061 64.9538 20.397L64.6616 19.1282C64.6208 18.9768 64.4997 18.7268 64.2022 18.7223C64.0545 18.7197 63.7245 18.7155 63.6114 18.7145C62.4448 18.7025 62.4418 17.6457 62.4418 17.2194V12.5909H64.4813C64.7306 12.5909 64.9086 12.4942 64.9086 12.2381V11.105C64.9086 10.9037 64.7942 10.7475 64.5395 10.7481H62.4418V7.21975C62.4418 7.04318 62.3857 6.72312 61.9699 6.72312C61.8619 6.72312 61.6936 6.72329 61.5083 6.72349C61.1787 6.72385 60.7954 6.72426 60.6034 6.72381ZM78.6617 10.7481H77.2942C77.0369 10.7481 76.8284 10.8817 76.8284 11.1613V20.2753C76.8284 20.5173 77.0369 20.7135 77.2942 20.7135H78.6617C78.919 20.7135 79.1275 20.5173 79.1275 20.2753V11.1863C79.1275 10.8886 78.919 10.7481 78.6617 10.7481ZM56.0191 6.7231H57.3866C57.6437 6.7231 57.8522 6.8636 57.8522 7.16129V20.2751C57.8522 20.5171 57.6437 20.7132 57.3866 20.7132H56.0191C55.7618 20.7132 55.5533 20.5171 55.5533 20.2751V7.13629C55.5533 6.85672 55.7618 6.7231 56.0191 6.7231ZM77.4928 9.25456H78.4633C78.8381 9.25456 79.1418 8.96865 79.1418 8.61638V7.3613C79.1418 7.00867 78.8381 6.72312 78.4633 6.72312H77.4928C77.1178 6.72312 76.8144 7.00867 76.8144 7.3613V8.61638C76.8144 8.96865 77.1178 9.25456 77.4928 9.25456ZM68.2747 20.7137H67.3039C66.9294 20.7137 66.6257 20.4279 66.6257 20.0754V18.8206C66.6257 18.468 66.9294 18.1822 67.3039 18.1822H68.2747C68.6495 18.1822 68.9531 18.468 68.9531 18.8206V20.0754C68.9531 20.4279 68.6495 20.7137 68.2747 20.7137Z" fill="#fff"/>
</g>
<defs>
<clipPath id="clip0_2414_33">
<rect width="87" height="30" fill="white"/>
</clipPath>
</defs>
</svg>
