<svg width="90" height="30" viewBox="0 0 90 30" fill="none" xmlns="http://www.w3.org/2000/svg">
<g clip-path="url(#clip0_2414_5)">
<path d="M14.3368 26.6355C20.6019 25.1544 24.4817 18.8673 23.0027 12.5933C21.5237 6.31924 15.2455 2.43386 8.98044 3.91501C2.71531 5.39616 -1.16459 11.6832 0.31446 17.9573C1.79351 24.2313 8.07162 28.1167 14.3368 26.6355Z" fill="#5367FF"/>
<path d="M23.0028 12.5934C22.7919 11.6964 22.482 10.8489 22.0888 10.0562L22.0862 10.0587L14.7456 16.8543C14.2874 17.2793 13.6052 17.3523 13.0661 17.0369L9.94659 15.2063C9.44139 14.9116 8.80863 14.9559 8.35035 15.3184C6.41823 16.8491 1.4707 20.7684 1.40039 20.8257C3.8403 25.3579 9.09249 27.8769 14.3369 26.6356C20.6019 25.1545 24.4818 18.8674 23.0028 12.5934Z" fill="#00F3BB"/>
<path d="M36.6809 21.3302C34.8395 21.3302 33.3476 20.7588 32.2052 19.616C31.0628 18.4733 30.4917 17.0379 30.4917 15.3098V15.2764C30.4917 13.6041 31.0742 12.1771 32.2393 10.9953C33.4045 9.81354 34.8736 9.22266 36.6469 9.22266C37.6472 9.22266 38.4997 9.35364 39.2044 9.61566C39.9092 9.87762 40.5855 10.2762 41.2334 10.8113L39.9035 12.3666C39.4033 11.9429 38.9003 11.628 38.3945 11.4217C37.8887 11.2155 37.2777 11.1124 36.5616 11.1124C35.4704 11.1124 34.5525 11.5165 33.808 12.3248C33.0634 13.1331 32.6912 14.1058 32.6912 15.2429V15.2764C32.6912 16.4916 33.0663 17.4922 33.8165 18.2782C34.5667 19.0642 35.5442 19.4572 36.7492 19.4572C37.8631 19.4572 38.8236 19.1617 39.6307 18.5708V16.3801H36.5786V14.5907H41.6597V19.5073C40.2161 20.7226 38.5565 21.3302 36.6809 21.3302Z" fill="#151515"/>
<path d="M44.3926 21.1292V12.2994H46.4556V14.2895C47.0922 12.7844 48.155 12.0653 49.6441 12.1322V14.2728H49.5247C48.5926 14.2728 47.8481 14.571 47.2911 15.1674C46.7341 15.7639 46.4556 16.6307 46.4556 17.7679V21.1292H44.3926Z" fill="#151515"/>
<path fill-rule="evenodd" clip-rule="evenodd" d="M52.2405 20.0011C53.1499 20.8874 54.2865 21.3306 55.6505 21.3306C57.026 21.3306 58.174 20.8819 59.0947 19.9844C60.0154 19.0869 60.4756 18.0027 60.4756 16.7318V16.6983C60.4756 15.4274 60.0184 14.3459 59.1032 13.454C58.1882 12.5621 57.0487 12.1162 55.6847 12.1162C54.3206 12.1162 53.1782 12.5649 52.2575 13.4624C51.3368 14.3599 50.8765 15.4496 50.8765 16.7318V16.7652C50.8765 18.0362 51.3311 19.1148 52.2405 20.0011ZM57.6625 18.7472C57.1623 19.288 56.503 19.5583 55.6846 19.5583C54.9003 19.5583 54.2467 19.2824 53.7238 18.7306C53.2009 18.1787 52.9395 17.5126 52.9395 16.7321V16.6987C52.9395 15.9071 53.1896 15.241 53.6897 14.7003C54.1898 14.1596 54.8435 13.8892 55.6505 13.8892C56.4462 13.8892 57.1055 14.1652 57.6283 14.717C58.1512 15.2689 58.4126 15.9406 58.4126 16.7321V16.7656C58.4126 17.546 58.1626 18.2065 57.6625 18.7472Z" fill="#151515"/>
<path d="M64.556 21.1947L61.6406 12.2981H63.755L65.5622 18.3518L67.5572 12.2646H69.3302L71.3252 18.3518L73.1666 12.2981H75.2468L72.2972 21.1947H70.4384L68.4266 15.1577L66.3974 21.1947H64.556Z" fill="#151515"/>
<path d="M79.309 21.1947L76.3936 12.2981H78.508L80.3152 18.3518L82.3102 12.2646H84.0832L86.0782 18.3518L87.9196 12.2981H89.9998L87.0502 21.1947H85.1914L83.1796 15.1577L81.1504 21.1947H79.309Z" fill="#151515"/>
</g>
<defs>
<clipPath id="clip0_2414_5">
<rect width="90" height="30" fill="white"/>
</clipPath>
</defs>
</svg>
