<?xml version="1.0" encoding="UTF-8" standalone="no" ?>
<!DOCTYPE svg PUBLIC "-//W3C//DTD SVG 1.1//EN" "http://www.w3.org/Graphics/SVG/1.1/DTD/svg11.dtd">
<svg xmlns="http://www.w3.org/2000/svg" xmlns:xlink="http://www.w3.org/1999/xlink" version="1.1" width="400" height="60" viewBox="0 0 400 60" xml:space="preserve">
<desc>Created with Fabric.js 5.2.4</desc>
<defs>
</defs>
<rect x="0" y="0" width="100%" height="100%" fill="transparent"></rect>
<g transform="matrix(Infinity NaN NaN Infinity 0 0)" id="96e819b8-e401-4ec7-8ba6-fb5eafd7a20b"  >
</g>
<g transform="matrix(1 0 0 1 200 30)" id="1e04e9ff-a559-45ee-80d1-d5e174caa68c"  >
<rect style="stroke: none; stroke-width: 1; stroke-dasharray: none; stroke-linecap: butt; stroke-dashoffset: 0; stroke-linejoin: miter; stroke-miterlimit: 4; fill: rgb(255,255,255); fill-rule: nonzero; opacity: 1; visibility: hidden;" vector-effect="non-scaling-stroke"  x="-200" y="-30" rx="0" ry="0" width="400" height="60" />
</g>
<g transform="matrix(1 0 0 1 -70 7.5)"  >
<rect style="stroke: none; stroke-width: 1; stroke-dasharray: none; stroke-linecap: butt; stroke-dashoffset: 0; stroke-linejoin: miter; stroke-miterlimit: 4; fill: rgb(248,19,14); fill-rule: nonzero; opacity: 1;" vector-effect="non-scaling-stroke"  x="-30" y="-7.5" rx="0" ry="0" width="60" height="15" />
</g>
<g transform="matrix(1 0 0 1 -70 22.5)"  >
<rect style="stroke: none; stroke-width: 1; stroke-dasharray: none; stroke-linecap: butt; stroke-dashoffset: 0; stroke-linejoin: miter; stroke-miterlimit: 4; fill: rgb(154,239,223); fill-rule: nonzero; opacity: 1;" vector-effect="non-scaling-stroke"  x="-30" y="-7.5" rx="0" ry="0" width="60" height="15" />
</g>
<g transform="matrix(1 0 0 1 -70 37.5)"  >
<rect style="stroke: none; stroke-width: 1; stroke-dasharray: none; stroke-linecap: butt; stroke-dashoffset: 0; stroke-linejoin: miter; stroke-miterlimit: 4; fill: rgb(68,193,193); fill-rule: nonzero; opacity: 1;" vector-effect="non-scaling-stroke"  x="-30" y="-7.5" rx="0" ry="0" width="60" height="15" />
</g>
<g transform="matrix(1 0 0 1 -70 52.5)"  >
<rect style="stroke: none; stroke-width: 1; stroke-dasharray: none; stroke-linecap: butt; stroke-dashoffset: 0; stroke-linejoin: miter; stroke-miterlimit: 4; fill: rgb(7,39,53); fill-rule: nonzero; opacity: 1;" vector-effect="non-scaling-stroke"  x="-30" y="-7.5" rx="0" ry="0" width="60" height="15" />
</g>
<g transform="matrix(0.64 0 0 0.64 200 30)"  >
<g style="" vector-effect="non-scaling-stroke"   >
		<g transform="matrix(1 0 0 1 -270 -22.5)"  >
<rect style="stroke: none; stroke-width: 1; stroke-dasharray: none; stroke-linecap: butt; stroke-dashoffset: 0; stroke-linejoin: miter; stroke-miterlimit: 4; fill: rgb(248,19,14); fill-rule: nonzero; opacity: 1;" vector-effect="non-scaling-stroke"  x="-30" y="-7.5" rx="0" ry="0" width="60" height="15" />
</g>
		<g transform="matrix(1 0 0 1 -270 -7.5)"  >
<rect style="stroke: none; stroke-width: 1; stroke-dasharray: none; stroke-linecap: butt; stroke-dashoffset: 0; stroke-linejoin: miter; stroke-miterlimit: 4; fill: rgb(154,239,223); fill-rule: nonzero; opacity: 1;" vector-effect="non-scaling-stroke"  x="-30" y="-7.5" rx="0" ry="0" width="60" height="15" />
</g>
		<g transform="matrix(1 0 0 1 -270 7.5)"  >
<rect style="stroke: none; stroke-width: 1; stroke-dasharray: none; stroke-linecap: butt; stroke-dashoffset: 0; stroke-linejoin: miter; stroke-miterlimit: 4; fill: rgb(68,193,193); fill-rule: nonzero; opacity: 1;" vector-effect="non-scaling-stroke"  x="-30" y="-7.5" rx="0" ry="0" width="60" height="15" />
</g>
		<g transform="matrix(1 0 0 1 -270 22.5)"  >
<rect style="stroke: none; stroke-width: 1; stroke-dasharray: none; stroke-linecap: butt; stroke-dashoffset: 0; stroke-linejoin: miter; stroke-miterlimit: 4; fill: rgb(7,39,53); fill-rule: nonzero; opacity: 1;" vector-effect="non-scaling-stroke"  x="-30" y="-7.5" rx="0" ry="0" width="60" height="15" />
</g>
		<g transform="matrix(1 0 0 1 54.05 0)"  >
<path style="stroke: none; stroke-width: 1; stroke-dasharray: none; stroke-linecap: butt; stroke-dashoffset: 0; stroke-linejoin: miter; stroke-miterlimit: 4; fill: rgb(18,18,18); fill-rule: nonzero; opacity: 1;" vector-effect="non-scaling-stroke"  transform=" translate(-227.05, -279)" d="M -13.4 266.7 L -13.4 276.7 L 0.2 276.7 L 0.2 281.2 L -13.4 281.2 L -13.4 295.7 L -18.9 295.7 L -18.9 262.09999999999997 L 3.9 262.09999999999997 L 3.9 266.59999999999997 L -13.4 266.7 L -13.4 266.7 z M 34.3 262.2 C 37.5 262.2 38.8 262.7 40.199999999999996 263.59999999999997 C 41.99999999999999 265.4 43.4 267.7 43.4 278.99999999999994 C 43.4 290.2999999999999 42 292.59999999999997 40.199999999999996 294.3999999999999 C 38.8 295.2999999999999 37.9 295.7999999999999 34.3 295.7999999999999 L 24.299999999999997 295.7999999999999 C 21.099999999999998 295.7999999999999 19.799999999999997 295.2999999999999 18.4 294.3999999999999 C 16.599999999999998 292.5999999999999 15.2 290.2999999999999 15.2 278.99999999999994 C 15.2 267.7 16.599999999999998 265.3999999999999 18.4 263.59999999999997 C 19.799999999999997 262.7 20.7 262.2 24.299999999999997 262.2 L 34.3 262.2 z M 22 290.8 C 22.5 291.3 22.9 291.3 24.7 291.3 L 33.8 291.3 C 35.599999999999994 291.3 36.099999999999994 291.3 36.5 290.8 C 37 290.3 37.9 289 37.9 279 C 37.9 269.5 37 267.6 36.5 267.2 C 36 266.7 35.6 266.7 33.8 266.7 L 24.699999999999996 266.7 C 22.899999999999995 266.7 22.399999999999995 266.7 21.999999999999996 267.2 C 21.599999999999998 267.7 20.599999999999998 269 20.599999999999998 279 C 21.1 288.5 21.6 290.4 22 290.8 z M 85.2 281.7 C 85.2 290.3 84.3 291.7 82.5 293.5 C 80.7 294.9 78.4 295.3 73.9 295.3 L 68.9 295.3 C 64.4 295.3 62.10000000000001 294.8 60.300000000000004 293.5 C 58.50000000000001 291.7 57.6 289.9 57.6 281.7 L 57.6 262.2 L 63.1 262.2 L 63.1 283.09999999999997 C 63.1 288.99999999999994 63.6 289.9 64.5 290.4 C 65 290.9 65.9 291.29999999999995 70 291.29999999999995 L 73.2 291.29999999999995 C 76.8 291.29999999999995 77.7 291.29999999999995 78.7 290.4 C 79.60000000000001 289.5 79.60000000000001 289.5 79.60000000000001 283.09999999999997 L 79.60000000000001 262.2 L 85.10000000000001 262.2 L 85.10000000000001 281.7 L 85.2 281.7 z M 128.8 295.8 L 122.9 295.8 C 121.5 295.8 121.10000000000001 295.3 120.2 294.40000000000003 L 106.60000000000001 269.40000000000003 L 105.7 269.40000000000003 L 105.7 295.70000000000005 L 100.2 295.70000000000005 L 100.2 262.1 L 106.60000000000001 262.1 C 108.00000000000001 262.1 108.4 262.6 109.30000000000001 263.5 L 122.50000000000001 287.1 L 123.40000000000002 287.1 L 123.40000000000002 261.70000000000005 L 128.90000000000003 261.70000000000005 L 128.90000000000003 295.8 z M 159.7 262.2 C 163.79999999999998 262.2 166.5 262.7 168.29999999999998 264.5 C 170.6 266.3 171.89999999999998 270.9 171.89999999999998 279 C 171.89999999999998 287.2 170.99999999999997 291.3 168.29999999999998 293.5 C 166.49999999999997 295.3 164.2 295.8 159.7 295.8 L 144.29999999999998 295.8 L 144.29999999999998 262.2 L 159.7 262.2 L 159.7 262.2 z M 163.7 267.6 C 162.79999999999998 266.70000000000005 161.39999999999998 266.70000000000005 159.6 266.70000000000005 L 150.1 266.70000000000005 L 150.1 291.20000000000005 L 159.6 291.20000000000005 C 161.9 291.20000000000005 162.79999999999998 291.20000000000005 163.7 290.30000000000007 C 165.1 288.9000000000001 165.5 286.70000000000005 165.5 279.4000000000001 C 166 271.3 165.1 269 163.7 267.6 z M 209.6 295.8 L 185.5 295.8 L 185.5 262.2 L 209.6 262.2 L 209.6 266.7 L 191 266.7 L 191 275.8 L 206.4 275.8 L 206.4 280.3 L 191 280.3 L 191 290.7 L 209.6 290.7 L 209.6 295.8 z M 242.8 282.6 C 242.3 282.1 241 282.1 239.20000000000002 282.1 L 229.20000000000002 282.1 L 229.20000000000002 296.20000000000005 L 223.70000000000002 296.20000000000005 L 223.70000000000002 262.6 L 242.8 262.6 C 245.10000000000002 262.6 246.9 263.1 247.8 264 C 249.20000000000002 265.4 250.10000000000002 267.2 250.10000000000002 272.2 C 250.10000000000002 278.09999999999997 248.3 279.9 244.20000000000002 280.4 L 244.20000000000002 280.4 C 247.8 280.9 249.20000000000002 281.79999999999995 249.70000000000002 286.79999999999995 C 249.70000000000002 291.29999999999995 250.20000000000002 294.49999999999994 250.20000000000002 296.29999999999995 L 244.70000000000002 296.29999999999995 C 244.20000000000002 293.99999999999994 244.20000000000002 290.79999999999995 244.20000000000002 287.19999999999993 C 243.7 284 243.2 283.1 242.8 282.6 z M 241 277.6 C 242.4 277.6 242.8 277.1 243.3 277.1 C 243.8 276.6 244.20000000000002 275.70000000000005 244.20000000000002 272.1 C 244.20000000000002 268.5 243.70000000000002 267.6 243.3 267.1 C 242.9 266.6 242.4 266.6 241 266.6 L 229.2 266.6 L 229.2 277.5 L 241 277.6 L 241 277.6 z M 288.2 294.4 C 287.3 295.29999999999995 285.5 295.79999999999995 282.7 295.79999999999995 L 270.9 295.79999999999995 C 268.2 295.79999999999995 266.4 295.29999999999995 265.4 294.4 C 264 293 263.59999999999997 291.2 263.59999999999997 285.29999999999995 L 269.09999999999997 285.29999999999995 C 269.09999999999997 289.4 269.59999999999997 290.29999999999995 269.59999999999997 290.79999999999995 C 270.09999999999997 291.29999999999995 270.49999999999994 291.29999999999995 271.9 291.29999999999995 L 281.9 291.29999999999995 C 283.29999999999995 291.29999999999995 283.7 291.29999999999995 284.2 290.79999999999995 C 284.7 290.29999999999995 284.7 288.99999999999994 284.7 286.29999999999995 C 284.7 283.99999999999994 284.7 283.09999999999997 284.2 282.69999999999993 C 283.7 282.19999999999993 283.3 282.19999999999993 281.9 282.19999999999993 L 271 281.29999999999995 C 268.3 280.79999999999995 266.9 280.4 266 279.49999999999994 C 264.6 278.09999999999997 264.2 276.79999999999995 264.2 272.19999999999993 C 264.2 267.69999999999993 264.7 265.79999999999995 266.5 263.99999999999994 C 267.4 263.09999999999997 269.2 262.59999999999997 272 262.59999999999997 L 282.9 262.59999999999997 C 285.59999999999997 262.59999999999997 287.4 263.09999999999997 288.4 263.99999999999994 C 289.79999999999995 265.3999999999999 290.2 266.69999999999993 290.2 273.09999999999997 L 284.7 273.09999999999997 C 284.7 268.99999999999994 284.2 268.09999999999997 284.2 268.09999999999997 C 283.7 267.59999999999997 283.3 267.59999999999997 281.9 267.59999999999997 L 272.79999999999995 267.59999999999997 C 271.4 267.59999999999997 270.99999999999994 267.59999999999997 270.49999999999994 268.09999999999997 C 269.99999999999994 268.59999999999997 269.99999999999994 269.9 269.99999999999994 272.59999999999997 C 269.99999999999994 274.9 269.99999999999994 275.79999999999995 270.49999999999994 276.2 C 270.99999999999994 276.7 271.3999999999999 276.7 272.79999999999995 276.7 L 283.69999999999993 277.59999999999997 C 285.99999999999994 277.59999999999997 287.79999999999995 278.09999999999997 288.69999999999993 279.4 C 290.0999999999999 280.79999999999995 290.49999999999994 282.09999999999997 290.49999999999994 287.09999999999997 C 290.5 290.8 290 292.6 288.2 294.4 z M 328.6 266.7 L 328.6 276.7 L 342.20000000000005 276.7 L 342.20000000000005 281.2 L 328.6 281.2 L 328.6 295.7 L 323.1 295.7 L 323.1 262.09999999999997 L 345.8 262.09999999999997 L 345.8 266.59999999999997 L 328.6 266.7 L 328.6 266.7 z M 386.3 281.7 C 386.3 290.3 385.40000000000003 291.7 383.6 293.5 C 381.8 294.9 379.5 295.3 375 295.3 L 370 295.3 C 365.5 295.3 363.2 294.8 361.4 293.5 C 359.59999999999997 291.7 358.7 289.9 358.7 281.7 L 358.7 262.2 L 364.2 262.2 L 364.2 283.09999999999997 C 364.2 288.99999999999994 364.7 289.9 365.59999999999997 290.4 C 366.09999999999997 290.9 366.99999999999994 291.29999999999995 371.09999999999997 291.29999999999995 L 374.29999999999995 291.29999999999995 C 377.9 291.29999999999995 378.79999999999995 291.29999999999995 379.79999999999995 290.4 C 380.69999999999993 289.5 380.69999999999993 289.5 380.69999999999993 283.09999999999997 L 380.69999999999993 262.2 L 386.19999999999993 262.2 L 386.19999999999993 281.7 L 386.3 281.7 z M 429.9 295.8 L 424 295.8 C 422.6 295.8 422.2 295.3 421.3 294.40000000000003 L 407.7 269.40000000000003 L 406.8 269.40000000000003 L 406.8 295.70000000000005 L 401.3 295.70000000000005 L 401.3 262.1 L 407.7 262.1 C 409.09999999999997 262.1 409.5 262.6 410.4 263.5 L 423.59999999999997 287.1 L 424.49999999999994 287.1 L 424.49999999999994 261.70000000000005 L 429.99999999999994 261.70000000000005 L 429.99999999999994 295.8 z M 460.8 262.2 C 464.90000000000003 262.2 467.6 262.7 469.40000000000003 264.5 C 471.70000000000005 266.3 473.00000000000006 270.9 473.00000000000006 279 C 473.00000000000006 287.2 472.1000000000001 291.3 469.40000000000003 293.5 C 467.6 295.3 465.3 295.8 460.8 295.8 L 445.40000000000003 295.8 L 445.40000000000003 262.2 L 460.8 262.2 L 460.8 262.2 z M 464.9 267.6 C 464 266.70000000000005 462.59999999999997 266.70000000000005 460.79999999999995 266.70000000000005 L 451.29999999999995 266.70000000000005 L 451.29999999999995 291.20000000000005 L 460.79999999999995 291.20000000000005 C 463.09999999999997 291.20000000000005 463.99999999999994 291.20000000000005 464.9 290.30000000000007 C 466.29999999999995 288.9000000000001 466.7 286.70000000000005 466.7 279.4000000000001 C 466.7 271.3 466.2 269 464.9 267.6 z" stroke-linecap="round" />
</g>
</g>
</g>
</svg>