<?xml version="1.0" encoding="UTF-8" standalone="no" ?>
<!DOCTYPE svg PUBLIC "-//W3C//DTD SVG 1.1//EN" "http://www.w3.org/Graphics/SVG/1.1/DTD/svg11.dtd">
<svg xmlns="http://www.w3.org/2000/svg" xmlns:xlink="http://www.w3.org/1999/xlink" version="1.1" width="400" height="60" viewBox="0 0 400 60" xml:space="preserve">
<desc>Created with Fabric.js 5.2.4</desc>
<defs>
</defs>
<g transform="matrix(Infinity NaN NaN Infinity 0 0)" id="96e819b8-e401-4ec7-8ba6-fb5eafd7a20b"  >
</g>
<g transform="matrix(1 0 0 1 200 30)" id="1e04e9ff-a559-45ee-80d1-d5e174caa68c"  >
<rect style="stroke: none; stroke-width: 1; stroke-dasharray: none; stroke-linecap: butt; stroke-dashoffset: 0; stroke-linejoin: miter; stroke-miterlimit: 4; fill: rgb(255,255,255); fill-rule: nonzero; opacity: 1; visibility: hidden;" vector-effect="non-scaling-stroke"  x="-200" y="-30" rx="0" ry="0" width="400" height="60" />
</g>
<g transform="matrix(0.62 0 0 0.62 200 30)"  >
<g style="" vector-effect="non-scaling-stroke"   >
		<g transform="matrix(1 0 0 1 -81.5 6.02)"  >
<path style="stroke: none; stroke-width: 1; stroke-dasharray: none; stroke-linecap: butt; stroke-dashoffset: 0; stroke-linejoin: miter; stroke-miterlimit: 4; fill: rgb(46,49,146); fill-rule: nonzero; opacity: 1;" vector-effect="non-scaling-stroke"  transform=" translate(-240.35, -328.45)" d="M 132.7 366.7 L 143.1 366.7 L 143.1 349.7 L 152.2 340.3 L 172.29999999999998 366.7 L 184.7 366.7 L 159.29999999999998 333.4 L 183.7 308.09999999999997 L 171 308.09999999999997 L 143.1 337.49999999999994 L 143.1 289.29999999999995 L 132.7 289.29999999999995 L 132.7 366.7 z M 193.5 366.7 L 237.4 366.7 L 237.4 357.5 L 203.8 357.5 L 203.8 341.8 L 233.20000000000002 341.8 L 233.20000000000002 332.6 L 203.8 332.6 L 203.8 317.40000000000003 L 237 317.40000000000003 L 237 308.20000000000005 L 193.6 308.20000000000005 L 193.6 366.7 z M 266.8 366.7 L 277.2 366.7 L 277.2 343.3 L 300.4 308.1 L 288.59999999999997 308.1 L 272.09999999999997 334.1 L 255.59999999999997 308.1 L 243.49999999999997 308.1 L 266.7 343.6 L 266.8 366.7 L 266.8 366.7 z M 327.1 367.6 C 339.40000000000003 367.6 348 361.1 348 350.1 L 348 349.8 C 348 340.1 341.5 335.7 329.1 332.8 C 316.70000000000005 329.90000000000003 315.20000000000005 328 315.20000000000005 323.6 L 315.20000000000005 323.6 C 315.20000000000005 319.70000000000005 318.70000000000005 316.5 324.70000000000005 316.5 C 330.70000000000005 316.5 335.40000000000003 318.7 340.6 322.6 L 346.1 314.8 C 340.1 309.90000000000003 332.6 307.3 324.90000000000003 307.40000000000003 C 313.40000000000003 307.40000000000003 305.00000000000006 314.3 305.00000000000006 324.40000000000003 L 305.00000000000006 324.40000000000003 C 305.00000000000006 335.20000000000005 311.90000000000003 338.8 324.50000000000006 341.90000000000003 C 337.1000000000001 344.90000000000003 337.6000000000001 346.70000000000005 337.6000000000001 350.8 L 337.6000000000001 351.1 C 337.6000000000001 355.40000000000003 333.6000000000001 358.5 327.2000000000001 358.5 C 320.8000000000001 358.5 314.4000000000001 355.6 308.7000000000001 350.9 L 302.5000000000001 358.29999999999995 C 309.3 364.2 318.1 367.6 327.1 367.6 L 327.1 367.6 z" stroke-linecap="round" />
</g>
		<g transform="matrix(1 0 0 1 0 15.02)"  >
<path style="stroke: none; stroke-width: 1; stroke-dasharray: none; stroke-linecap: butt; stroke-dashoffset: 0; stroke-linejoin: miter; stroke-miterlimit: 4; fill: rgb(255,222,64); fill-rule: nonzero; opacity: 1;" vector-effect="non-scaling-stroke"  transform=" translate(-321.85, -337.45)" d="M 356 366.7 L 375.3 366.7 L 375.3 339.7 L 397.1 366.7 L 414.6 366.7 L 414.6 308.09999999999997 L 395.1 308.09999999999997 L 395.1 333.9 L 374.3 308.09999999999997 L 356 308.09999999999997 L 356 366.7 z M 422.1 366.7 L 472.5 366.7 L 472.5 350.7 L 441.3 350.7 L 441.3 344.3 L 470 344.3 L 470 330.2 L 441.3 330.2 L 441.3 324.09999999999997 L 472 324.09999999999997 L 472 308.09999999999997 L 422.1 308.09999999999997 L 422.1 366.7 z M 494.4 367.1 L 511.4 367.1 L 521.8 337.90000000000003 L 532 367.1 L 549 367.1 L 568.2 308.1 L 548 308.1 L 539.8 336.20000000000005 L 530.3 307.90000000000003 L 513.4 307.90000000000003 L 504 336.20000000000005 L 495.6 308.1 L 475.1 308.1 L 494.4 367.1 z M 596 367.8 C 611.7 367.8 621.8 360.2 621.8 347.90000000000003 L 621.8 347.90000000000003 C 621.8 336.1 611.8 331.70000000000005 596.8 329.00000000000006 C 590.5999999999999 327.80000000000007 589 326.80000000000007 589 325.20000000000005 L 589 325.20000000000005 C 589 323.80000000000007 590.3 322.70000000000005 593.3 322.70000000000005 C 599.5999999999999 322.80000000000007 605.6999999999999 324.80000000000007 610.8 328.50000000000006 L 620.5 315.20000000000005 C 613.7 309.90000000000003 605.3 307.1 593.9 307.1 C 577.6999999999999 307.1 569.1 315.8 569.1 326.90000000000003 L 569.1 326.90000000000003 C 569.1 339.3 580.6 343.1 593.8000000000001 345.8 C 600.2 347.1 601.9000000000001 348 601.9000000000001 349.7 L 601.9000000000001 349.7 C 601.9000000000001 351.3 600.5000000000001 352.2 597.0000000000001 352.2 C 589.6000000000001 352.2 582.3000000000001 349.8 576.4000000000001 345.4 L 566 357.9 C 573.5 364.4 584.2 367.8 596 367.8 z M 21.9 366.7 L 41.5 366.7 L 41.5 347.5 L 68.8 347.5 L 68.8 332.3 L 41.5 332.3 L 41.5 324.8 L 70.9 324.8 L 70.9 308.1 L 21.9 308.1 L 21.9 366.7 z M 76.4 366.7 L 123.5 366.7 L 123.5 350 L 95.9 350 L 95.9 308.1 L 76.4 308.1 L 76.4 366.7 z" stroke-linecap="round" />
</g>
		<g transform="matrix(1 0 0 1 -184.9 -22.9)"  >
<path style="stroke: none; stroke-width: 1; stroke-dasharray: none; stroke-linecap: butt; stroke-dashoffset: 0; stroke-linejoin: miter; stroke-miterlimit: 4; fill: rgb(46,49,146); fill-rule: nonzero; opacity: 1;" vector-effect="non-scaling-stroke"  transform=" translate(-136.95, -299.53)" d="M 147 291.6 L 149.5 293 C 147.7 291.5 146.6 290.6 147 291.6 M 148.9 285.3 C 150.1 285.40000000000003 151.20000000000002 285.5 152.4 285.90000000000003 C 149.7 285 147.9 284.6 148.9 285.3 z M 126.8 285.9 L 124.8 286.2 C 126.9 285.3 128.4 284.9 126.8 285.9 z M 136.3 285.6 C 137.70000000000002 281.70000000000005 141.4 276.1 151.5 277.20000000000005 L 147.2 278.20000000000005 L 148.6 278.20000000000005 L 149.6 278.50000000000006 C 149.7 278.50000000000006 149.6 278.6000000000001 149.2 278.80000000000007 C 148.79999999999998 278.9000000000001 142.7 279.50000000000006 145.2 279.70000000000005 C 147.7 279.80000000000007 147.89999999999998 280.00000000000006 145.5 280.6 L 142.6 281.5 L 144.2 281.5 C 149.5 279 157.2 278.5 166.7 285.5 C 163.2 284.2 160.1 283.3 160.1 283.3 L 162 284.7 C 162.5 284.9 162.9 285.3 163.2 285.7 C 163.5 286 163.2 286 162.5 285.8 C 161.8 285.7 153 281.5 156.1 283.6 C 159.2 285.70000000000005 159.7 286.20000000000005 156 285 C 154.4 284.4 152.8 283.9 151.1 283.7 C 151.1 283.7 157.9 287.3 155.1 286.59999999999997 C 160.29999999999998 288.49999999999994 165.5 292.79999999999995 169.79999999999998 301.49999999999994 C 166.79999999999998 298.19999999999993 163.99999999999997 295.69999999999993 163.99999999999997 295.69999999999993 L 165.29999999999998 298.19999999999993 C 165.49999999999997 298.79999999999995 165.7 299.29999999999995 165.89999999999998 299.8999999999999 C 165.89999999999998 300.19999999999993 165.79999999999998 300.19999999999993 164.99999999999997 299.5999999999999 C 164.19999999999996 298.9999999999999 157.39999999999998 290.0999999999999 159.49999999999997 293.7999999999999 C 161.59999999999997 297.4999999999999 161.79999999999998 298.5999999999999 158.49999999999997 295.1999999999999 C 157.19999999999996 293.7999999999999 155.69999999999996 292.59999999999985 154.19999999999996 291.39999999999986 C 154.19999999999996 291.39999999999986 160.09999999999997 299.59999999999985 156.09999999999997 295.6999999999999 C 152.09999999999997 291.7999999999999 148.69999999999996 288.7999999999999 152.89999999999998 294.4999999999999 C 153.7 295.39999999999986 154.39999999999998 296.39999999999986 154.89999999999998 297.4999999999999 L 154.79999999999998 297.4999999999999 C 158.1 301.6999999999999 160.39999999999998 307.6999999999999 160.1 316.6999999999999 C 159.5 313.9999999999999 158.7 311.39999999999986 157.6 308.89999999999986 C 157.7 309.79999999999984 157.7 310.6999999999999 157.6 311.59999999999985 C 157.6 312.29999999999984 157.5 312.89999999999986 157.5 313.29999999999984 C 157.5 313.6999999999998 157.1 313.59999999999985 156.8 312.6999999999998 C 155.60000000000002 309.1999999999998 154.5 300.6999999999998 154.60000000000002 305.0999999999998 C 154.70000000000005 309.4999999999998 154.50000000000003 310.3999999999998 153.00000000000003 305.9999999999998 C 152.60000000000002 304.0999999999998 151.90000000000003 302.19999999999976 151.00000000000003 300.4999999999998 C 151.00000000000003 300.4999999999998 152.30000000000004 310.69999999999976 150.70000000000002 305.39999999999975 C 149.10000000000002 300.09999999999974 147.4 295.69999999999976 148.4 302.7999999999997 C 148.70000000000002 303.9999999999997 148.8 305.1999999999997 148.70000000000002 306.39999999999975 C 148.4 307.09999999999974 143.60000000000002 290.19999999999976 144.8 299.9999999999998 C 145.5 306.0999999999998 144.70000000000002 303.89999999999975 143.8 299.89999999999975 C 142.9 295.89999999999975 141.9 293.09999999999974 142.5 297.69999999999976 C 142.6 299.39999999999975 141.2 294.69999999999976 136.9 290.2999999999998 L 134.70000000000002 290.2999999999998 C 134.10000000000002 294.7999999999998 134.8 297.8999999999998 134.3 296.4999999999998 C 132.4 292.2999999999998 133 295.19999999999976 134.3 299.19999999999976 C 135.60000000000002 303.19999999999976 135.70000000000002 305.39999999999975 133.4 299.7999999999998 C 129.4 290.69999999999976 133.8 307.69999999999976 133.1 307.2999999999998 C 132.4 306.8999999999998 132.5 306.0999999999998 131.7 303.9999999999998 C 129 297.39999999999975 129.79999999999998 301.7999999999998 131 307.2999999999998 C 132.2 312.7999999999998 128.3 303.3999999999998 128.3 303.3999999999998 C 128.5 305.2999999999998 128.8 307.2999999999998 129.3 309.1999999999998 C 130.3 313.6999999999998 129.60000000000002 313.0999999999998 127.60000000000001 309.1999999999998 C 125.60000000000001 305.29999999999984 128.8 313.3999999999998 129.5 316.79999999999984 C 129.8 317.79999999999984 129.6 317.99999999999983 129.4 317.79999999999984 L 128.20000000000002 316.39999999999986 L 126.80000000000001 313.89999999999986 C 126.80000000000001 313.89999999999986 127.50000000000001 317.6999999999999 128.70000000000002 321.9999999999999 C 120.60000000000002 309.1999999999999 123.10000000000002 299.5999999999999 127.10000000000002 293.5999999999999 L 127.10000000000002 293.19999999999993 C 128.8 288.8999999999999 127.20000000000002 291.29999999999995 125.20000000000002 295.0999999999999 C 123.20000000000002 298.8999999999999 122.20000000000002 300.69999999999993 124.20000000000002 294.9999999999999 C 127.70000000000002 285.5999999999999 119.10000000000002 301.1999999999999 119.00000000000001 300.2999999999999 C 118.90000000000002 299.3999999999999 119.10000000000001 298.9999999999999 120.00000000000001 296.7999999999999 C 122.70000000000002 289.9999999999999 120.10000000000001 293.8999999999999 117.30000000000001 298.7999999999999 C 114.50000000000001 303.6999999999999 118.20000000000002 293.9999999999999 118.20000000000002 293.9999999999999 C 118.20000000000002 293.9999999999999 117.20000000000002 294.6999999999999 114.90000000000002 298.7999999999999 C 112.60000000000002 302.8999999999999 112.40000000000002 301.7999999999999 113.60000000000002 297.5999999999999 C 114.80000000000003 293.3999999999999 111.60000000000002 301.4999999999999 109.70000000000002 304.4999999999999 C 109.10000000000002 305.2999999999999 108.80000000000001 305.39999999999986 108.80000000000001 304.89999999999986 C 108.80000000000001 304.29999999999984 108.80000000000001 303.6999999999999 108.9 303.1999999999999 C 109.2 301.89999999999986 109.60000000000001 300.4999999999999 109.60000000000001 300.4999999999999 C 109.60000000000001 300.4999999999999 107.4 303.6999999999999 105.30000000000001 307.5999999999999 C 108.00000000000001 294.5999999999999 114.70000000000002 289.0999999999999 121.00000000000001 286.7999999999999 L 123.20000000000002 285.4999999999999 C 130.70000000000002 281.4999999999999 116.60000000000002 286.4999999999999 117.00000000000001 285.89999999999986 C 117.40000000000002 285.29999999999984 117.90000000000002 285.1999999999999 119.60000000000001 284.29999999999984 C 125.10000000000001 281.59999999999985 121.30000000000001 282.59999999999985 116.7 283.99999999999983 C 112.10000000000001 285.3999999999998 119.9 281.3999999999998 119.9 281.3999999999998 C 118.30000000000001 281.5999999999998 116.7 281.99999999999983 115.10000000000001 282.5999999999998 C 111.30000000000001 283.8999999999998 111.80000000000001 283.1999999999998 115.00000000000001 281.1999999999998 C 118.20000000000002 279.1999999999998 111.50000000000001 282.49999999999983 108.60000000000001 283.3999999999998 C 105.7 284.2999999999998 107.60000000000001 283.49999999999983 107.7 283.2999999999998 L 108.9 282.2999999999998 C 109.5 281.7999999999998 110.2 281.3999999999998 110.9 280.9999999999998 C 108.60000000000001 281.5999999999998 106.30000000000001 282.2999999999998 104.10000000000001 283.19999999999976 C 120.10000000000001 271.19999999999976 130.9 280.9999999999998 134.60000000000002 285.19999999999976 L 136.3 285.6 L 136.3 285.6 z" stroke-linecap="round" />
</g>
</g>
</g>
</svg>