<?xml version="1.0" encoding="UTF-8" standalone="no" ?>
<!DOCTYPE svg PUBLIC "-//W3C//DTD SVG 1.1//EN" "http://www.w3.org/Graphics/SVG/1.1/DTD/svg11.dtd">
<svg xmlns="http://www.w3.org/2000/svg" xmlns:xlink="http://www.w3.org/1999/xlink" version="1.1" width="400" height="60" viewBox="0 0 400 60" xml:space="preserve">
<desc>Created with Fabric.js 5.2.4</desc>
<defs>
</defs>
<rect x="0" y="0" width="100%" height="100%" fill="transparent"></rect>
<g transform="matrix(Infinity NaN NaN Infinity 0 0)" id="96e819b8-e401-4ec7-8ba6-fb5eafd7a20b"  >
</g>
<g transform="matrix(1 0 0 1 200 30)" id="1e04e9ff-a559-45ee-80d1-d5e174caa68c"  >
<rect style="stroke: none; stroke-width: 1; stroke-dasharray: none; stroke-linecap: butt; stroke-dashoffset: 0; stroke-linejoin: miter; stroke-miterlimit: 4; fill: rgb(255,255,255); fill-rule: nonzero; opacity: 1; visibility: hidden;" vector-effect="non-scaling-stroke"  x="-200" y="-30" rx="0" ry="0" width="400" height="60" />
</g>
<g transform="matrix(1 0 0 1 -70 7.5)"  >
<rect style="stroke: none; stroke-width: 1; stroke-dasharray: none; stroke-linecap: butt; stroke-dashoffset: 0; stroke-linejoin: miter; stroke-miterlimit: 4; fill: rgb(248,19,14); fill-rule: nonzero; opacity: 1;" vector-effect="non-scaling-stroke"  x="-30" y="-7.5" rx="0" ry="0" width="60" height="15" />
</g>
<g transform="matrix(1 0 0 1 -70 22.5)"  >
<rect style="stroke: none; stroke-width: 1; stroke-dasharray: none; stroke-linecap: butt; stroke-dashoffset: 0; stroke-linejoin: miter; stroke-miterlimit: 4; fill: rgb(154,239,223); fill-rule: nonzero; opacity: 1;" vector-effect="non-scaling-stroke"  x="-30" y="-7.5" rx="0" ry="0" width="60" height="15" />
</g>
<g transform="matrix(1 0 0 1 -70 37.5)"  >
<rect style="stroke: none; stroke-width: 1; stroke-dasharray: none; stroke-linecap: butt; stroke-dashoffset: 0; stroke-linejoin: miter; stroke-miterlimit: 4; fill: rgb(68,193,193); fill-rule: nonzero; opacity: 1;" vector-effect="non-scaling-stroke"  x="-30" y="-7.5" rx="0" ry="0" width="60" height="15" />
</g>
<g transform="matrix(1 0 0 1 -70 52.5)"  >
<rect style="stroke: none; stroke-width: 1; stroke-dasharray: none; stroke-linecap: butt; stroke-dashoffset: 0; stroke-linejoin: miter; stroke-miterlimit: 4; fill: rgb(7,39,53); fill-rule: nonzero; opacity: 1;" vector-effect="non-scaling-stroke"  x="-30" y="-7.5" rx="0" ry="0" width="60" height="15" />
</g>
<g transform="matrix(0.63 0 0 0.63 200 30)"  >
<g style="" vector-effect="non-scaling-stroke"   >
		<g transform="matrix(1 0 0 1 46.05 12.45)"  >
<path style="stroke: none; stroke-width: 1; stroke-dasharray: none; stroke-linecap: butt; stroke-dashoffset: 0; stroke-linejoin: miter; stroke-miterlimit: 4; fill: rgb(53,58,64); fill-rule: nonzero; opacity: 1;" vector-effect="non-scaling-stroke"  transform=" translate(-368.4, -333.05)" d="M 114.5 312.2 C 114.5 311.59999999999997 115 311 115.7 311 L 141.8 311 C 142.5 311 143 311.6 143 312.2 L 143 319.09999999999997 C 143 319.7 142.5 320.29999999999995 141.8 320.29999999999995 L 124.30000000000001 320.29999999999995 L 124.30000000000001 329.4 L 138.70000000000002 329.4 C 139.3 329.4 139.9 330 139.9 330.59999999999997 L 139.9 337.49999999999994 C 139.9 338.09999999999997 139.3 338.69999999999993 138.70000000000002 338.69999999999993 L 124.30000000000001 338.69999999999993 L 124.30000000000001 353.99999999999994 C 124.30000000000001 354.59999999999997 123.70000000000002 355.19999999999993 123.10000000000001 355.19999999999993 L 115.7 355.19999999999993 C 115 355.19999999999993 114.5 354.5999999999999 114.5 353.99999999999994 C 114.5 353.9 114.5 312.2 114.5 312.2 z M 151.6 312.2 C 151.6 311.59999999999997 152.1 311 152.79999999999998 311 L 171.7 311 C 179.29999999999998 311 185.39999999999998 317.1 185.39999999999998 324.6 C 185.39999999999998 330.40000000000003 181.59999999999997 335.1 176.09999999999997 337.3 L 184.69999999999996 353.3 C 185.09999999999997 354.1 184.69999999999996 355.1 183.59999999999997 355.1 L 175.19999999999996 355.1 C 174.69999999999996 355.1 174.29999999999995 354.8 174.19999999999996 354.5 L 165.79999999999995 337.8 L 161.39999999999995 337.8 L 161.39999999999995 353.90000000000003 C 161.39999999999995 354.50000000000006 160.79999999999995 355.1 160.19999999999996 355.1 L 152.69999999999996 355.1 C 151.99999999999997 355.1 151.49999999999997 354.5 151.49999999999997 353.90000000000003 L 151.6 312.2 L 151.6 312.2 z M 170.8 329.8 C 173.4 329.8 175.60000000000002 327.40000000000003 175.60000000000002 324.8 C 175.60000000000002 322.2 173.40000000000003 320 170.8 320 L 161.5 320 L 161.5 329.8 L 170.8 329.8 z M 195.5 312.2 C 195.5 311.59999999999997 196 311 196.7 311 L 222.79999999999998 311 C 223.49999999999997 311 223.99999999999997 311.6 223.99999999999997 312.2 L 223.99999999999997 319.09999999999997 C 223.99999999999997 319.7 223.49999999999997 320.29999999999995 222.79999999999998 320.29999999999995 L 205.29999999999998 320.29999999999995 L 205.29999999999998 328.09999999999997 L 219.7 328.09999999999997 C 220.29999999999998 328.09999999999997 220.89999999999998 328.7 220.89999999999998 329.29999999999995 L 220.89999999999998 336.19999999999993 C 220.89999999999998 336.8999999999999 220.29999999999998 337.3999999999999 219.7 337.3999999999999 L 205.29999999999998 337.3999999999999 L 205.29999999999998 345.8999999999999 L 222.79999999999998 345.8999999999999 C 223.49999999999997 345.8999999999999 223.99999999999997 346.49999999999994 223.99999999999997 347.0999999999999 L 223.99999999999997 353.9999999999999 C 223.99999999999997 354.5999999999999 223.49999999999997 355.1999999999999 222.79999999999998 355.1999999999999 L 196.7 355.1999999999999 C 196 355.1999999999999 195.5 354.59999999999985 195.5 353.9999999999999 L 195.5 312.2 z M 234.8 312.2 C 234.8 311.59999999999997 235.4 311 236 311 L 243.6 311 C 244.2 311 244.79999999999998 311.6 244.79999999999998 312.2 L 244.79999999999998 353.9 C 244.79999999999998 354.5 244.2 355.09999999999997 243.6 355.09999999999997 L 236 355.09999999999997 C 235.4 355.09999999999997 234.8 354.49999999999994 234.8 353.9 L 234.8 312.2 z M 276.9 310.4 C 282.2 310.4 288 312.59999999999997 292.29999999999995 316.29999999999995 C 292.9 316.69999999999993 292.9 317.49999999999994 292.4 317.99999999999994 L 287.4 323.29999999999995 C 286.9 323.69999999999993 286.2 323.69999999999993 285.7 323.4 C 283.3 321.2 280.5 320.4 277.4 320.4 C 270.5 320.4 265 326.2 265 333.09999999999997 C 265 339.99999999999994 270.6 345.59999999999997 277.5 345.59999999999997 C 279.3 345.59999999999997 281.2 345.29999999999995 283.1 344.59999999999997 L 283.1 341 L 279.1 341 C 278.40000000000003 341 277.90000000000003 340.5 277.90000000000003 339.9 L 277.90000000000003 333.7 C 277.90000000000003 333 278.40000000000003 332.5 279.1 332.5 L 291.8 332.5 C 292.40000000000003 332.5 292.90000000000003 333.1 292.90000000000003 333.7 L 293.00000000000006 350.7 C 293.00000000000006 351 292.70000000000005 351.5 292.50000000000006 351.7 C 292.50000000000006 351.7 286.00000000000006 355.8 276.90000000000003 355.8 C 264.40000000000003 355.8 254.30000000000004 345.8 254.30000000000004 333.2 C 254.3 320.5 264.4 310.4 276.9 310.4 z M 304.1 312.2 C 304.1 311.59999999999997 304.70000000000005 311 305.3 311 L 312.8 311 C 313.5 311 314 311.6 314 312.2 L 314 328 L 332 328 L 332 312.1 C 332 311.5 332.5 310.90000000000003 333.2 310.90000000000003 L 340.7 310.90000000000003 C 341.3 310.90000000000003 341.9 311.50000000000006 341.9 312.1 L 341.9 353.8 C 341.9 354.40000000000003 341.29999999999995 355 340.7 355 L 333.2 355 C 332.5 355 332 354.4 332 353.8 L 332 337.2 L 314 337.2 L 314 353.8 C 314 354.40000000000003 313.5 355 312.8 355 L 305.3 355 C 304.7 355 304.1 354.4 304.1 353.8 L 304.1 312.2 z M 359.7 320.2 L 350.7 320.2 C 350 320.2 349.5 319.59999999999997 349.5 319 L 349.5 312.1 C 349.5 311.5 350 310.90000000000003 350.7 310.90000000000003 L 378.7 310.90000000000003 C 379.4 310.90000000000003 379.9 311.50000000000006 379.9 312.1 L 379.9 319 C 379.9 319.6 379.4 320.2 378.7 320.2 L 369.7 320.2 L 369.7 353.9 C 369.7 354.5 369.09999999999997 355.09999999999997 368.5 355.09999999999997 L 360.9 355.09999999999997 C 360.29999999999995 355.09999999999997 359.7 354.49999999999994 359.7 353.9 L 359.7 320.2 L 359.7 320.2 z M 407.1 310.3 C 413.5 310.3 418.1 312.5 422.40000000000003 316.2 C 422.90000000000003 316.7 423.00000000000006 317.5 422.50000000000006 318 L 420.80000000000007 319.7 C 420.30000000000007 320.3 419.80000000000007 320.3 419.20000000000005 319.59999999999997 C 415.90000000000003 316.79999999999995 411.40000000000003 314.9 407.20000000000005 314.9 C 397.20000000000005 314.9 389.6 323.29999999999995 389.6 333.09999999999997 C 389.6 342.79999999999995 397.20000000000005 351.2 407.20000000000005 351.2 C 412.70000000000005 351.2 415.90000000000003 349 419.20000000000005 346.5 C 419.80000000000007 346 420.30000000000007 346.1 420.70000000000005 346.3 L 422.6 348 C 423.1 348.4 423 349.3 422.5 349.7 C 418.2 353.9 412.8 355.8 407.2 355.8 C 394.59999999999997 355.8 384.4 345.8 384.4 333.2 C 384.3 320.5 394.5 310.3 407.1 310.3 z M 433.2 312.2 C 433.2 311.59999999999997 433.7 311 434.4 311 L 459.2 311 C 459.9 311 460.4 311.6 460.4 312.2 L 460.4 314 C 460.4 314.6 459.9 315.2 459.2 315.2 L 438 315.2 L 438 330.59999999999997 L 456.1 330.59999999999997 C 456.70000000000005 330.59999999999997 457.3 331.2 457.3 331.79999999999995 L 457.3 333.59999999999997 C 457.3 334.29999999999995 456.7 334.79999999999995 456.1 334.79999999999995 L 438 334.79999999999995 L 438 350.9 L 459.2 350.9 C 459.9 350.9 460.4 351.5 460.4 352.09999999999997 L 460.4 353.9 C 460.4 354.5 459.9 355.09999999999997 459.2 355.09999999999997 L 434.4 355.09999999999997 C 433.7 355.09999999999997 433.2 354.49999999999994 433.2 353.9 L 433.2 312.2 z M 470.8 311.5 C 470.8 310.9 471.40000000000003 310.4 472 310.4 L 473.6 310.4 L 502 345.79999999999995 C 502.1 345.79999999999995 502.1 345.79999999999995 502.1 345.79999999999995 L 502.1 312.19999999999993 C 502.1 311.5999999999999 502.6 310.99999999999994 503.3 310.99999999999994 L 505.5 310.99999999999994 C 506.1 310.99999999999994 506.7 311.59999999999997 506.7 312.19999999999993 L 506.7 354.5999999999999 C 506.7 355.19999999999993 506.09999999999997 355.69999999999993 505.5 355.69999999999993 L 504.4 355.69999999999993 L 475.5 319.5999999999999 L 475.4 319.5999999999999 L 475.4 353.8999999999999 C 475.4 354.49999999999994 474.9 355.0999999999999 474.2 355.0999999999999 L 472 355.0999999999999 C 471.4 355.0999999999999 470.8 354.4999999999999 470.8 353.8999999999999 L 470.8 311.5 L 470.8 311.5 z M 527.7 315.2 L 516.7 315.2 C 516 315.2 515.5 314.59999999999997 515.5 314 L 515.5 312.2 C 515.5 311.59999999999997 516 311 516.7 311 L 543.4000000000001 311 C 544.1000000000001 311 544.6000000000001 311.6 544.6000000000001 312.2 L 544.6000000000001 314 C 544.6000000000001 314.6 544.1000000000001 315.2 543.4000000000001 315.2 L 532.4000000000001 315.2 L 532.4000000000001 353.9 C 532.4000000000001 354.5 531.8000000000001 355.09999999999997 531.2 355.09999999999997 L 528.8000000000001 355.09999999999997 C 528.2 355.09999999999997 527.6 354.49999999999994 527.6 353.9 L 527.6 315.2 L 527.7 315.2 z M 553.4 312.2 C 553.4 311.59999999999997 553.9 311 554.6 311 L 579.4 311 C 580.1 311 580.6 311.6 580.6 312.2 L 580.6 314 C 580.6 314.6 580.1 315.2 579.4 315.2 L 558.1999999999999 315.2 L 558.1999999999999 330.59999999999997 L 576.3 330.59999999999997 C 576.9 330.59999999999997 577.5 331.2 577.5 331.79999999999995 L 577.5 333.59999999999997 C 577.5 334.29999999999995 576.9 334.79999999999995 576.3 334.79999999999995 L 558.1999999999999 334.79999999999995 L 558.1999999999999 350.9 L 579.4 350.9 C 580.1 350.9 580.6 351.5 580.6 352.09999999999997 L 580.6 353.9 C 580.6 354.5 580.1 355.09999999999997 579.4 355.09999999999997 L 554.6 355.09999999999997 C 553.9 355.09999999999997 553.4 354.49999999999994 553.4 353.9 L 553.4 312.2 z M 591.1 312.2 C 591.1 311.59999999999997 591.6 311 592.3000000000001 311 L 608.6 311 C 616.2 311 622.3000000000001 316.9 622.3000000000001 324.4 C 622.3000000000001 330.2 618.5000000000001 335.09999999999997 613.0000000000001 337.29999999999995 L 621.6000000000001 353.29999999999995 C 622.0000000000001 354.09999999999997 621.6000000000001 355.09999999999997 620.5000000000001 355.09999999999997 L 617.3000000000001 355.09999999999997 C 616.7 355.09999999999997 616.4000000000001 354.79999999999995 616.3000000000001 354.49999999999994 L 607.9000000000001 337.79999999999995 L 595.9000000000001 337.79999999999995 L 595.9000000000001 353.9 C 595.9000000000001 354.5 595.3000000000001 355.09999999999997 594.7 355.09999999999997 L 592.2 355.09999999999997 C 591.5 355.09999999999997 591 354.49999999999994 591 353.9 L 591.1 312.2 L 591.1 312.2 z M 608.3 333.7 C 613.1999999999999 333.7 617.4 329.7 617.4 324.5 C 617.4 319.7 613.1999999999999 315.6 608.3 315.6 L 596 315.6 L 596 333.70000000000005 L 608.3 333.70000000000005 z" stroke-linecap="round" />
</g>
		<g transform="matrix(1 0 0 1 -265.97 -1.51)"  >
<path style="stroke: none; stroke-width: 1; stroke-dasharray: none; stroke-linecap: butt; stroke-dashoffset: 0; stroke-linejoin: miter; stroke-miterlimit: 4; fill: rgb(248,112,13); fill-rule: nonzero; opacity: 1;" vector-effect="non-scaling-stroke"  transform=" translate(-56.38, -319.09)" d="M 42.2 305.9 L 89.4 305.9 C 90.2 305.9 90.7 304.9 90.10000000000001 304.29999999999995 L 71.60000000000001 285.69999999999993 C 71.4 285.49999999999994 71.2 285.3999999999999 70.9 285.3999999999999 L 23.3 285.3999999999999 C 22.8 285.3999999999999 22.400000000000002 285.7999999999999 22.400000000000002 286.2999999999999 L 22.400000000000002 333.9999999999999 C 22.400000000000002 334.2999999999999 22.500000000000004 334.4999999999999 22.700000000000003 334.6999999999999 L 40.7 352.4999999999999 C 41.300000000000004 353.0999999999999 42.300000000000004 352.6999999999999 42.300000000000004 351.7999999999999 L 42.2 305.9 L 42.2 305.9 z" stroke-linecap="round" />
</g>
		<g transform="matrix(1 0 0 1 -252.75 12.2)"  >
<path style="stroke: none; stroke-width: 1; stroke-dasharray: none; stroke-linecap: butt; stroke-dashoffset: 0; stroke-linejoin: miter; stroke-miterlimit: 4; fill: rgb(53,58,64); fill-rule: nonzero; opacity: 1;" vector-effect="non-scaling-stroke"  transform=" translate(-69.6, -332.8)" d="M 74.3 337.1 L 49.4 337.1 C 48.699999999999996 337.1 48.1 337.70000000000005 48.1 338.40000000000003 L 48.1 353 C 48.1 353.7 48.7 354.3 49.4 354.3 L 89.8 354.3 C 90.5 354.3 91.1 353.7 91.1 353 L 91.1 312.6 C 91.1 311.90000000000003 90.5 311.3 89.8 311.3 L 75.5 311.3 C 74.8 311.3 74.2 311.90000000000003 74.2 312.6 L 74.3 337.1 L 74.3 337.1 z" stroke-linecap="round" />
</g>
</g>
</g>
</svg>