<svg width="83" height="24" viewBox="0 0 83 24" fill="none" xmlns="http://www.w3.org/2000/svg">
<g clip-path="url(#clip0_2414_14)">
<mask id="mask0_2414_14" style="mask-type:luminance" maskUnits="userSpaceOnUse" x="0" y="0" width="83" height="29">
<path d="M82.8 0H0V28.8H82.8V0Z" fill="white"/>
</mask>
<g mask="url(#mask0_2414_14)">
<path fill-rule="evenodd" clip-rule="evenodd" d="M6.55613 0.431094C3.97622 0.480869 1.90039 2.55307 1.90039 5.10207C1.90039 7.65106 3.97622 9.72328 6.55613 9.77302V9.77398H6.65111H7.50629L12.8783 4.49106C13.1009 4.27213 13.4619 4.27213 13.6845 4.49106L17.9844 8.7196C18.207 8.93848 18.207 9.29344 17.9844 9.51244L17.7185 9.77398H21.7585V0.430176H6.65351H6.65111H6.64877H6.55613V0.431094ZM6.55607 10.7084L6.29411 10.9659C6.07151 11.1849 6.07151 11.5399 6.29411 11.7588L10.594 15.9873C10.8167 16.2062 11.1776 16.2062 11.4002 15.9873L16.7683 10.7084H17.5759H17.5778C20.2016 10.7084 22.3286 12.8 22.3286 15.3803C22.3286 17.9604 20.2016 20.0522 17.5778 20.0522H2.37548V10.7084H6.55607Z" fill="#4D43FE"/>
<path d="M37.1207 11.92C38.139 11.92 38.9648 12.2275 39.5986 12.8426C40.253 13.4577 40.5803 14.3148 40.5803 15.4139V20.3903H38.383V15.8072C38.383 15.1921 38.2272 14.7182 37.9156 14.3854C37.6142 14.0526 37.2039 13.8863 36.6845 13.8863C36.1234 13.8863 35.6716 14.0678 35.3287 14.4308C34.9858 14.7837 34.8144 15.2627 34.8144 15.8677V20.3903H32.617V15.8223C32.617 15.2173 32.4612 14.7434 32.1494 14.4005C31.8482 14.0577 31.4327 13.8863 30.9028 13.8863C30.3626 13.8863 29.9158 14.0678 29.5627 14.4308C29.2198 14.7938 29.0485 15.2778 29.0485 15.8828V20.3903H26.8511V12.1469H29.0015V13.3266C29.2405 12.893 29.5938 12.5502 30.0614 12.2981C30.5287 12.0359 31.038 11.9099 31.5885 11.92C32.1287 11.92 32.6222 12.046 33.069 12.2981C33.526 12.5502 33.8637 12.9082 34.0819 13.372C34.3935 12.9182 34.8196 12.5653 35.3597 12.3132C35.9002 12.051 36.487 11.92 37.1207 11.92Z" fill="#fff"/>
<path d="M41.7021 16.2613C41.7021 15.0412 42.128 14.0178 42.98 13.1909C43.8423 12.3439 44.9332 11.9204 46.2525 11.9204C47.572 11.9204 48.6627 12.3439 49.5251 13.1909C50.377 14.0178 50.8031 15.0412 50.8031 16.2613C50.8031 17.4915 50.377 18.52 49.5251 19.347C48.6627 20.1838 47.572 20.6024 46.2525 20.6024C44.9332 20.6024 43.8423 20.1838 42.98 19.347C42.128 18.52 41.7021 17.4915 41.7021 16.2613ZM44.5696 17.9403C45.0162 18.3939 45.5773 18.621 46.2525 18.621C46.907 18.621 47.4629 18.3939 47.9199 17.9403C48.3771 17.4664 48.6057 16.9066 48.6057 16.2613C48.6057 15.616 48.3771 15.0614 47.9199 14.5976C47.4629 14.1438 46.907 13.917 46.2525 13.917C45.5773 13.917 45.0162 14.1438 44.5696 14.5976C44.1227 15.0412 43.8993 15.5958 43.8993 16.2613C43.8993 16.9168 44.1227 17.4764 44.5696 17.9403Z" fill="#fff"/>
<path d="M54.2357 20.3907H52.0386V12.1473H54.189V13.2968C54.4176 12.8834 54.7709 12.5506 55.2489 12.2985C55.7266 12.0465 56.2618 11.9204 56.8538 11.9204C57.7786 11.9204 58.5629 12.2179 59.207 12.8128C59.8513 13.4077 60.1734 14.2547 60.1734 15.3538V20.3907H57.9758V15.9286C57.9758 15.2832 57.8149 14.7842 57.4929 14.4312C57.1708 14.0682 56.7345 13.8867 56.1838 13.8867C55.6019 13.8867 55.1294 14.0833 54.7658 14.4766C54.4125 14.8598 54.2357 15.3589 54.2357 15.974V20.3907Z" fill="#fff"/>
<path d="M69.9849 16.0799C69.9849 16.332 69.9591 16.6445 69.9069 17.0176H63.5331C63.8451 18.1873 64.6707 18.7722 66.0111 18.7722C66.9981 18.7722 67.9125 18.4949 68.7537 17.9403L69.6261 19.4376C68.5461 20.194 67.3095 20.572 65.9175 20.572C64.4319 20.572 63.2889 20.1536 62.4891 19.3166C61.6995 18.4898 61.3047 17.4715 61.3047 16.2614C61.3047 15.0009 61.7151 13.9674 62.5359 13.1607C63.3567 12.3439 64.4217 11.9355 65.7303 11.9355C66.9669 11.9355 67.9851 12.3086 68.7849 13.0548C69.5847 13.801 69.9849 14.8094 69.9849 16.0799ZM65.7303 13.7052C65.1801 13.7052 64.7073 13.8615 64.3125 14.1741C63.9279 14.4766 63.6681 14.895 63.5331 15.4295H67.8501C67.7457 14.895 67.5069 14.4766 67.1331 14.1741C66.7587 13.8615 66.2913 13.7052 65.7303 13.7052Z" fill="#fff"/>
<path d="M74.6077 17.516L76.5397 12.1465H78.9397L75.5269 20.7983C75.1117 21.857 74.6131 22.6385 74.0311 23.1426C73.4593 23.6469 72.7585 23.8988 71.9269 23.8988C71.2831 23.8988 70.7377 23.7627 70.2907 23.4904L70.6651 21.7056C71.0491 21.8872 71.4127 21.978 71.7559 21.978C72.4309 21.978 72.9817 21.5443 73.4077 20.6771L73.5793 20.2991L69.8701 12.1465H72.4105L74.6077 17.516Z" fill="#fff"/>
<path d="M30.4043 9.0196C28.9093 9.0196 27.7248 8.473 26.8511 7.37974L28.0353 5.9898C28.3406 6.35422 28.7039 6.64576 29.125 6.8644C29.5567 7.0726 29.9884 7.17676 30.42 7.17676C30.7569 7.17676 31.0359 7.09864 31.2568 6.94246C31.4885 6.78628 31.6043 6.58846 31.6043 6.349C31.6043 6.04708 31.3991 5.80239 30.9884 5.61498C30.8621 5.56292 30.52 5.43277 29.962 5.22456C29.4673 5.04754 29.0986 4.89657 28.8566 4.77165C27.8669 4.30311 27.3721 3.5691 27.3721 2.56956C27.3721 1.83034 27.6669 1.21605 28.2565 0.72671C28.8356 0.24777 29.6146 0.00830078 30.5936 0.00830078C31.8148 0.00830078 32.8203 0.414353 33.6098 1.22646L32.5046 2.64765C31.9045 2.08542 31.2464 1.80432 30.5306 1.80432C30.2462 1.80432 30.0093 1.8772 29.8199 2.02296C29.6409 2.1583 29.5515 2.32489 29.5515 2.52272C29.5515 2.87671 29.8042 3.13701 30.3095 3.3036C31.4359 3.72005 32.1254 3.99597 32.3782 4.13133C33.3468 4.63107 33.8309 5.34948 33.8309 6.28654C33.8309 7.08826 33.5152 7.74418 32.8835 8.25436C32.2729 8.76454 31.4464 9.0196 30.4043 9.0196Z" fill="#fff"/>
<path d="M41.776 8.00458C41.081 8.67094 40.1177 9.00412 38.8859 9.00412C37.6542 9.00412 36.6857 8.67094 35.9804 8.00458C35.2854 7.32784 34.938 6.39598 34.938 5.20907V0.289551H37.1646V5.20907C37.1646 5.75047 37.3173 6.18256 37.6226 6.5053C37.928 6.8281 38.3491 6.98944 38.8859 6.98944C39.423 6.98944 39.8441 6.8281 40.1492 6.5053C40.4546 6.18256 40.6073 5.75047 40.6073 5.20907V0.289551H42.8339V5.20907C42.8339 6.40642 42.4813 7.33828 41.776 8.00458Z" fill="#fff"/>
<path fill-rule="evenodd" clip-rule="evenodd" d="M52.4078 1.36658C51.5972 0.502394 50.5865 0.0703125 49.3759 0.0703125C48.2915 0.0703125 47.3808 0.491989 46.6437 1.33532V0.288954H44.4331V11.9876L46.6597 9.78426V7.81656C47.3966 8.6079 48.2966 9.00354 49.3599 9.00354C50.5707 9.00354 51.5814 8.57148 52.3921 7.70724C53.2028 6.84312 53.6081 5.78633 53.6081 4.53692C53.6081 3.27711 53.2079 2.22032 52.4078 1.36658ZM50.7023 6.28608C50.2602 6.75462 49.6865 6.98886 48.981 6.98886C48.2862 6.98886 47.7177 6.75462 47.2756 6.28608C46.8333 5.81756 46.6122 5.2397 46.6122 4.55255C46.6122 3.86537 46.8333 3.28751 47.2756 2.819C47.7177 2.35046 48.2862 2.11622 48.981 2.11622C49.6865 2.11622 50.2602 2.35046 50.7023 2.819C51.1445 3.28751 51.3657 3.86537 51.3657 4.55255C51.3657 5.2397 51.1445 5.81756 50.7023 6.28608Z" fill="#fff"/>
<path fill-rule="evenodd" clip-rule="evenodd" d="M63.2201 4.34951C63.2201 4.60981 63.1937 4.93257 63.1409 5.31779H56.682C56.9979 6.52554 57.8348 7.12944 59.1929 7.12944C60.1931 7.12944 61.1195 6.84312 61.9721 6.27048L62.8565 7.81656C61.7615 8.59746 60.5087 8.98788 59.0981 8.98788C57.5927 8.98788 56.4345 8.55582 55.6239 7.69164C54.8238 6.8379 54.4238 5.78633 54.4238 4.53692C54.4238 3.23546 54.8396 2.16828 55.6714 1.33532C56.503 0.491989 57.5821 0.0703125 58.9086 0.0703125C60.1613 0.0703125 61.1933 0.455556 62.0039 1.226C62.8145 1.99647 63.2201 3.03764 63.2201 4.34951ZM58.9086 1.89755C58.3506 1.89755 57.8717 2.05894 57.4715 2.38169C57.0822 2.69405 56.8189 3.12614 56.682 3.67796H61.0565C60.9509 3.12614 60.7091 2.69405 60.3299 2.38169C59.9509 2.05894 59.4773 1.89755 58.9086 1.89755Z" fill="#fff"/>
<path d="M64.436 8.80096H66.6626V4.75603C66.6626 3.90228 66.8468 3.26196 67.2152 2.83507C67.5938 2.39779 68.1098 2.17915 68.7626 2.17915C69.068 2.17915 69.41 2.23641 69.7892 2.35093L69.9788 0.242586C69.6314 0.117639 69.284 0.0551758 68.9366 0.0551758C67.8728 0.0551758 67.0832 0.513287 66.5678 1.42951V0.289422H64.436V8.80096Z" fill="#fff"/>
<path d="M70.5933 8.83168C71.7333 8.83168 72.6573 7.92292 72.6573 6.80182C72.6573 5.68077 71.7333 4.77197 70.5933 4.77197C69.4533 4.77197 68.5293 5.68077 68.5293 6.80182C68.5293 7.92292 69.4533 8.83168 70.5933 8.83168Z" fill="#4D43FE"/>
</g>
</g>
<defs>
<clipPath id="clip0_2414_14">
<rect width="82.8" height="24" fill="white"/>
</clipPath>
</defs>
</svg>
